<?xml version="1.0" encoding="utf-8"?>
<!-- Generator: Adobe Illustrator 18.1.0, SVG Export Plug-In . SVG Version: 6.00 Build 0)  -->
<!DOCTYPE svg PUBLIC "-//W3C//DTD SVG 1.1//EN" "http://www.w3.org/Graphics/SVG/1.1/DTD/svg11.dtd">
<svg version="1.1" id="Layer_1" xmlns="http://www.w3.org/2000/svg" xmlns:xlink="http://www.w3.org/1999/xlink" x="0px" y="0px"
	 viewBox="0 0 76 70" enable-background="new 0 0 76 70" xml:space="preserve">
<path fill="none" stroke="#307699" stroke-width="2" stroke-linecap="round" stroke-linejoin="round" stroke-miterlimit="10" d="
	M31.789,41.222c2.371-2.126,6.065-3.494,10.215-3.494c6.692,0,12.921,3.249,13.698,9.746"/>
<path fill="none" stroke="#307699" stroke-width="2" stroke-linecap="round" stroke-linejoin="round" stroke-miterlimit="10" d="
	M27.564,46.062c1.931-0.594,3.251-2.466,3.886-5.367c0.423-1.932,0.543-4.321,0.339-7.093c0,0-0.321-2.898,0.862-6.756
	c-2.234,0.069-5.087,0.402-5.665,2.465c-2.723-1.733-9.159-1.815-11.717,0.99c0.093-2.558-1.609-3.455-1.155-5.384
	c-1.761-0.44-5.611,4.229-3.466,9.427c-0.825,2.145-0.578,5.776-0.083,6.436"/>
<path fill="#307699" d="M13.207,35.665c0.245-1.575,3.466-2.973,11.552-2.973c6.436,0,8.334,1.571,8.499,2.478
	c0.124,0.681-0.207,3.589-1.85,5.001c-0.547,0.471-1.241,0.775-2.111,0.775c-3.469,0-3.878-3.466-4.208-3.878
	c-0.33-0.413-0.908-0.66-1.403,0.083s-1.898,3.713-3.135,4.291c-1.238,0.578-3.548,0.578-4.373,0
	C15.352,40.864,12.629,39.378,13.207,35.665z"/>
<path fill="none" stroke="#8DC5D8" stroke-miterlimit="10" d="M23.204,40.864c0.139,0.561,0.984,0.985,1.644,1.011
	c0.66,0.026,1.726-0.681,1.644-1.011C26.409,40.534,23.073,40.331,23.204,40.864z"/>
<path fill="none" stroke="#307699" stroke-width="2" stroke-linecap="round" stroke-linejoin="round" stroke-miterlimit="10" d="
	M25.441,50.2c-1.196,0.38-1.773,1.357-1.859,2.607c-0.152,2.213,2.2,4.096,3.72,4.428c3.607,0.789,4.897-1.299,4.748-3.071
	c-0.069-0.822-0.624-1.607-0.085-2.348c0.48-0.661,1.878-0.171,1.878-0.171"/>
<path fill="none" stroke="#307699" stroke-linecap="round" stroke-miterlimit="10" d="M31.468,52.275
	c1.89,0.207,3.886,0.274,5.998,0.178c17.365-0.792,28.698-8.867,38.034-18.8"/>
<path fill="none" stroke="#307699" stroke-linecap="round" stroke-miterlimit="10" d="M0.5,29.972
	c5.103,6.698,12.031,17.04,24.481,20.952"/>
<g>
	<path fill="#307699" d="M3.242,39.813c0,0,0.276,0.22,0.793,0.634c0.495,0.439,1.234,1.086,2.021,2.053
		c0.794,0.959,1.641,2.221,2.487,3.733c0.848,1.511,1.699,3.265,2.598,5.18c0.903,1.923,1.87,3.973,3.3,5.855
		c1.404,1.908,3.248,3.624,5.379,5.049c2.138,1.424,4.61,2.477,7.222,3.188c2.616,0.711,5.378,1.053,8.149,1.138l1.04,0.033
		c0.159,0.002,0.38,0.018,0.487,0.01l0.528-0.022l2.11-0.086c0.697-0.042,1.414-0.027,2.09-0.116
		c0.674-0.095,1.345-0.19,2.015-0.285c0.667-0.113,1.343-0.144,1.994-0.322c0.654-0.16,1.305-0.319,1.953-0.478
		c1.318-0.249,2.513-0.814,3.737-1.231c0.622-0.19,1.166-0.538,1.741-0.807c0.56-0.296,1.141-0.547,1.677-0.861
		c0.524-0.335,1.043-0.667,1.556-0.995c0.254-0.168,0.518-0.318,0.76-0.497l0.702-0.559c0.465-0.371,0.924-0.737,1.376-1.098
		c0.42-0.4,0.833-0.794,1.239-1.182c0.843-0.747,1.511-1.618,2.233-2.375c2.688-3.218,4.669-6.171,6.345-8.012
		c0.389-0.484,0.82-0.844,1.173-1.173c0.177-0.163,0.342-0.313,0.492-0.451c0.171-0.113,0.326-0.216,0.466-0.308
		c0.553-0.365,0.848-0.56,0.848-0.56s-0.278,0.217-0.799,0.625c-0.129,0.101-0.274,0.214-0.432,0.338
		c-0.138,0.149-0.288,0.311-0.451,0.486c-0.319,0.355-0.715,0.73-1.074,1.233c-0.771,0.955-1.609,2.19-2.56,3.624
		c-0.945,1.436-2.041,3.05-3.355,4.734c-0.708,0.801-1.359,1.714-2.197,2.516c-0.405,0.415-0.816,0.837-1.234,1.265
		c-0.455,0.391-0.916,0.788-1.384,1.191l-0.71,0.607c-0.245,0.195-0.513,0.363-0.771,0.548c-0.523,0.362-1.053,0.728-1.588,1.098
		c-0.547,0.351-1.145,0.632-1.729,0.95c-0.595,0.294-1.164,0.666-1.808,0.879c-1.268,0.462-2.518,1.073-3.881,1.361
		c-0.672,0.178-1.348,0.356-2.028,0.536c-0.678,0.189-1.395,0.231-2.096,0.353c-0.706,0.102-1.414,0.205-2.125,0.309
		c-0.71,0.096-1.402,0.083-2.107,0.13l-2.109,0.099l-0.528,0.025c-0.245,0.013-0.377-0.004-0.571-0.005l-1.075-0.029
		c-2.865-0.106-5.738-0.478-8.482-1.241c-2.744-0.753-5.333-1.948-7.576-3.492c-2.248-1.539-4.123-3.451-5.524-5.502
		c-1.439-2.047-2.358-4.213-3.183-6.146c-0.846-1.941-1.581-3.731-2.324-5.27c-0.744-1.537-1.501-2.822-2.224-3.811
		c-0.724-0.989-1.383-1.699-1.845-2.17C3.499,40.054,3.242,39.813,3.242,39.813z"/>
</g>
<path fill="none" stroke="#307699" stroke-width="2" stroke-linecap="round" stroke-linejoin="round" stroke-miterlimit="10" d="
	M54.23,43.298c5.184-5.322,4.443-7.474,0.895-12.601c-1.474-2.13-0.404-7.418,2.97-8.781c3.064-1.238,6.589-0.176,8.239,4.609
	c1.349,3.913,0.837,13.773-10.55,19.455"/>
<path fill="none" stroke="#8DC5D8" stroke-linecap="round" stroke-miterlimit="10" d="M23.204,62.358
	c11.799,5.635,29.367,0.738,32.965-3.933"/>
<path fill="none" stroke="#CCCCCC" stroke-linecap="round" stroke-miterlimit="10" d="M67.772,9.476
	c-3.839,4.19-9.356,6.817-15.486,6.817C44.19,16.294,37.164,11.712,33.66,5"/>
<path fill="none" stroke="#CCCCCC" stroke-linecap="round" stroke-miterlimit="10" d="M30.679,6.772
	c-0.184,0.556-0.211,4.728-0.211,4.728H33"/>
<polyline fill="none" stroke="#CCCCCC" stroke-linecap="round" stroke-miterlimit="10" points="38.234,13.386 38.864,17.47 
	42.924,16.294 "/>
<polyline fill="none" stroke="#CCCCCC" stroke-linecap="round" stroke-miterlimit="10" points="48.036,17.587 50.521,20.495 
	53.684,18.138 "/>
<polyline fill="none" stroke="#CCCCCC" stroke-linecap="round" stroke-miterlimit="10" points="59.306,17.47 63.756,19.041 
	64.868,15.428 "/>
<g>
	<path fill="#999999" d="M5.719,1.9c10.839-0.17,21.677-0.396,32.515-0.511l16.258-0.21c5.419-0.083,10.839-0.19,16.258-0.22
		l1.051-0.006L71.791,2c-0.024,2.496-0.017,4.992-0.065,7.488c-0.044,2.496-0.094,4.992-0.172,7.488
		c-0.064,2.496-0.19,4.992-0.283,7.488c-0.042,1.248-0.118,2.496-0.188,3.744c-0.068,1.248-0.138,2.496-0.233,3.744
		c-0.004,0.055-0.052,0.097-0.108,0.092c-0.05-0.004-0.089-0.044-0.092-0.092c-0.095-1.248-0.164-2.496-0.233-3.744
		c-0.07-1.248-0.147-2.496-0.188-3.744c-0.092-2.496-0.218-4.992-0.283-7.488c-0.078-2.496-0.128-4.992-0.172-7.488
		C69.726,6.992,69.733,4.496,69.709,2l1.041,1.041c-5.419-0.03-10.839-0.137-16.258-0.22l-16.258-0.21
		C27.396,2.496,16.557,2.27,5.719,2.1C5.664,2.099,5.62,2.054,5.62,1.998C5.621,1.944,5.665,1.901,5.719,1.9z"/>
</g>
<path fill="none" stroke="#CCCCCC" stroke-linecap="round" stroke-miterlimit="10" d="M5.719,29.838"/>
<g>
	<path fill="#999999" d="M8.469,4.569l29.765-0.284l14.883-0.131C58.078,4.095,63.039,4.074,68,4.152l0.475,0.007l-0.008,0.46
		c-0.047,2.804-0.063,5.607-0.147,8.411l-0.113,4.205l-0.157,4.205c-0.001,0.028-0.024,0.049-0.052,0.048
		c-0.026-0.001-0.047-0.022-0.048-0.048l-0.157-4.205L67.68,13.03c-0.084-2.804-0.1-5.607-0.147-8.411L68,5.086
		c-4.961,0.078-9.922,0.057-14.883-0.003L38.234,4.953L8.469,4.669c-0.028,0-0.05-0.023-0.05-0.05
		C8.42,4.591,8.442,4.569,8.469,4.569z"/>
</g>
<path fill="none" stroke="#CCCCCC" stroke-linecap="round" stroke-miterlimit="10" d="M8.469,22.866"/>
</svg>
